<?xml version="1.0" encoding="utf-8"?>
<!-- Generator: Adobe Illustrator 22.1.0, SVG Export Plug-In . SVG Version: 6.00 Build 0)  -->
<svg version="1.1" id="Layer_1" xmlns="http://www.w3.org/2000/svg" xmlns:xlink="http://www.w3.org/1999/xlink" x="0px" y="0px"
	 viewBox="0 0 18.1 18" style="enable-background:new 0 0 18.1 18;" xml:space="preserve">
<style type="text/css">
	.st0{fill:url(#SVGID_1_);}
	.st1{fill:url(#SVGID_2_);}
	.st2{fill:url(#SVGID_3_);}
	.st3{fill:url(#SVGID_4_);}
	.st4{fill:url(#SVGID_5_);}
	.st5{fill:url(#SVGID_6_);}
	.st6{fill:url(#SVGID_7_);}
	.st7{fill:url(#SVGID_8_);}
	.st8{fill:#FFFFFF;}
	.st9{fill:url(#SVGID_9_);}
	.st10{fill:url(#SVGID_10_);}
	.st11{fill:url(#SVGID_11_);}
	.st12{fill:url(#SVGID_12_);}
	.st13{fill:#9E1209;}
	.st14{fill:url(#SVGID_13_);}
	.st15{fill:url(#SVGID_14_);}
	.st16{fill:url(#SVGID_15_);}
	.st17{fill:url(#SVGID_16_);}
</style>
<g>
	
		<linearGradient id="SVGID_1_" gradientUnits="userSpaceOnUse" x1="15.8597" y1="0.3637" x2="12.0518" y2="7.0866" gradientTransform="matrix(1 0 0 -1 0 20)">
		<stop  offset="0" style="stop-color:#FB7655"/>
		<stop  offset="0" style="stop-color:#FB7655"/>
		<stop  offset="0.41" style="stop-color:#E42B1E"/>
		<stop  offset="0.99" style="stop-color:#990000"/>
		<stop  offset="1" style="stop-color:#990000"/>
	</linearGradient>
	<polygon class="st0" points="3.7,18 17,17.1 18,3.6 14,11.9 	"/>
	
		<linearGradient id="SVGID_2_" gradientUnits="userSpaceOnUse" x1="17.7494" y1="6.0015" x2="12.842" y2="9.2946" gradientTransform="matrix(1 0 0 -1 0 20)">
		<stop  offset="0" style="stop-color:#871101"/>
		<stop  offset="0" style="stop-color:#871101"/>
		<stop  offset="0.99" style="stop-color:#911209"/>
		<stop  offset="1" style="stop-color:#911209"/>
	</linearGradient>
	<polygon class="st1" points="12.8,13.3 17.1,17.1 15.9,9.2 	"/>
	
		<linearGradient id="SVGID_3_" gradientUnits="userSpaceOnUse" x1="13.8227" y1="0.1498" x2="8.9154" y2="3.4429" gradientTransform="matrix(1 0 0 -1 0 20)">
		<stop  offset="0" style="stop-color:#871101"/>
		<stop  offset="0" style="stop-color:#871101"/>
		<stop  offset="0.99" style="stop-color:#911209"/>
		<stop  offset="1" style="stop-color:#911209"/>
	</linearGradient>
	<polygon class="st2" points="3.7,18 17.1,17.1 8.6,16.4 	"/>
	
		<linearGradient id="SVGID_4_" gradientUnits="userSpaceOnUse" x1="3.5317" y1="8.3954" x2="4.2924" y2="3.4512" gradientTransform="matrix(1 0 0 -1 0 20)">
		<stop  offset="0" style="stop-color:#FFFFFF"/>
		<stop  offset="0" style="stop-color:#FFFFFF"/>
		<stop  offset="0.23" style="stop-color:#E57252"/>
		<stop  offset="0.46" style="stop-color:#DE3B20"/>
		<stop  offset="0.99" style="stop-color:#A60003"/>
		<stop  offset="1" style="stop-color:#A60003"/>
	</linearGradient>
	<polygon class="st3" points="1.2,12.1 3.7,18 5.8,11.1 	"/>
	
		<linearGradient id="SVGID_5_" gradientUnits="userSpaceOnUse" x1="8.7595" y1="13.0112" x2="9.0398" y2="7.9653" gradientTransform="matrix(1 0 0 -1 0 20)">
		<stop  offset="0" style="stop-color:#FFFFFF"/>
		<stop  offset="0" style="stop-color:#FFFFFF"/>
		<stop  offset="0.23" style="stop-color:#E4714E"/>
		<stop  offset="0.56" style="stop-color:#BE1A0D"/>
		<stop  offset="0.99" style="stop-color:#A80D00"/>
		<stop  offset="1" style="stop-color:#A80D00"/>
	</linearGradient>
	<polygon class="st4" points="5.3,10.9 12.8,13.3 10.8,5.8 	"/>
	
		<linearGradient id="SVGID_6_" gradientUnits="userSpaceOnUse" x1="13.3952" y1="17.6735" x2="14.2343" y2="14.0572" gradientTransform="matrix(1 0 0 -1 0 20)">
		<stop  offset="0" style="stop-color:#FFFFFF"/>
		<stop  offset="0" style="stop-color:#FFFFFF"/>
		<stop  offset="0.18" style="stop-color:#E46342"/>
		<stop  offset="0.4" style="stop-color:#C82410"/>
		<stop  offset="0.99" style="stop-color:#A80D00"/>
		<stop  offset="1" style="stop-color:#A80D00"/>
	</linearGradient>
	<polygon class="st5" points="10.9,6.3 17.6,5.8 12.4,1.6 	"/>
	
		<linearGradient id="SVGID_7_" gradientUnits="userSpaceOnUse" x1="10.8381" y1="18.9503" x2="14.4543" y2="20.7584" gradientTransform="matrix(1 0 0 -1 0 20)">
		<stop  offset="0" style="stop-color:#FFFFFF"/>
		<stop  offset="0" style="stop-color:#FFFFFF"/>
		<stop  offset="0.54" style="stop-color:#C81F11"/>
		<stop  offset="0.99" style="stop-color:#BF0905"/>
		<stop  offset="1" style="stop-color:#BF0905"/>
	</linearGradient>
	<polygon class="st6" points="10.2,0 15.2,0.1 12.1,1.8 	"/>
	
		<linearGradient id="SVGID_8_" gradientUnits="userSpaceOnUse" x1="0.3643" y1="9.6558" x2="0.6619" y2="6.676" gradientTransform="matrix(1 0 0 -1 0 20)">
		<stop  offset="0" style="stop-color:#FFFFFF"/>
		<stop  offset="0" style="stop-color:#FFFFFF"/>
		<stop  offset="0.31" style="stop-color:#DE4024"/>
		<stop  offset="0.99" style="stop-color:#BF190B"/>
		<stop  offset="1" style="stop-color:#BF190B"/>
	</linearGradient>
	<polygon class="st7" points="0.2,9.3 0,14.4 1.3,12.1 	"/>
	<path class="st8" d="M0.2,9.2l1,3l4.5-1L11,6.3l1.5-4.7L10.1,0L6.2,1.5C4.9,2.6,2.6,4.9,2.5,4.9C2.4,5,0.9,7.8,0.2,9.2z"/>
	
		<linearGradient id="SVGID_9_" gradientUnits="userSpaceOnUse" x1="-1.6792" y1="5.8586" x2="12.3115" y2="20.245" gradientTransform="matrix(1 0 0 -1 0 20)">
		<stop  offset="0" style="stop-color:#BD0012"/>
		<stop  offset="0" style="stop-color:#BD0012"/>
		<stop  offset="7.000000e-02" style="stop-color:#FFFFFF"/>
		<stop  offset="0.17" style="stop-color:#FFFFFF"/>
		<stop  offset="0.27" style="stop-color:#C82F1C"/>
		<stop  offset="0.33" style="stop-color:#820C01"/>
		<stop  offset="0.46" style="stop-color:#A31601"/>
		<stop  offset="0.72" style="stop-color:#B31301"/>
		<stop  offset="0.99" style="stop-color:#E82609"/>
		<stop  offset="1" style="stop-color:#E82609"/>
	</linearGradient>
	<path class="st9" d="M3.9,3.8c2.7-2.7,6.1-4.2,7.5-2.9c1.3,1.4-0.1,4.6-2.7,7.2c-2.7,2.7-6.1,4.3-7.4,3C-0.2,9.8,1.2,6.5,3.9,3.8z"
		/>
	
		<linearGradient id="SVGID_10_" gradientUnits="userSpaceOnUse" x1="9.0198" y1="4.3936" x2="4.8056" y2="5.4337" gradientTransform="matrix(1 0 0 -1 0 20)">
		<stop  offset="0" style="stop-color:#8C0C01"/>
		<stop  offset="0" style="stop-color:#8C0C01"/>
		<stop  offset="0.54" style="stop-color:#990C00"/>
		<stop  offset="0.99" style="stop-color:#A80D0E"/>
		<stop  offset="1" style="stop-color:#A80D0E"/>
	</linearGradient>
	<path class="st10" d="M3.7,18l2.1-6.9l6.9,2.2C10.2,15.7,7.5,17.6,3.7,18z"/>
	
		<linearGradient id="SVGID_11_" gradientUnits="userSpaceOnUse" x1="16.2622" y1="9.4743" x2="12.5185" y2="12.8296" gradientTransform="matrix(1 0 0 -1 0 20)">
		<stop  offset="0" style="stop-color:#7E110B"/>
		<stop  offset="0" style="stop-color:#7E110B"/>
		<stop  offset="0.99" style="stop-color:#9E0C00"/>
		<stop  offset="1" style="stop-color:#9E0C00"/>
	</linearGradient>
	<path class="st11" d="M11,6.3l1.8,7c2.1-2.2,4-4.5,4.9-7.4L11,6.3z"/>
	
		<linearGradient id="SVGID_12_" gradientUnits="userSpaceOnUse" x1="17.6585" y1="15.6506" x2="15.7937" y2="17.6442" gradientTransform="matrix(1 0 0 -1 0 20)">
		<stop  offset="0" style="stop-color:#79130D"/>
		<stop  offset="0" style="stop-color:#79130D"/>
		<stop  offset="0.99" style="stop-color:#9E120B"/>
		<stop  offset="1" style="stop-color:#9E120B"/>
	</linearGradient>
	<path class="st12" d="M17.6,5.8c0.7-2.2,0.9-5.2-2.5-5.8l-2.7,1.5L17.6,5.8z"/>
	<path class="st13" d="M0,14.4C0.1,17.9,2.7,18,3.7,18l-2.5-5.9L0,14.4z"/>
	
		<radialGradient id="SVGID_13_" cx="29.1186" cy="14.9279" r="10.1948" gradientTransform="matrix(0.45 0 0 -0.45 0 13.95)" gradientUnits="userSpaceOnUse">
		<stop  offset="0" style="stop-color:#A80D00"/>
		<stop  offset="0" style="stop-color:#A80D00"/>
		<stop  offset="0.99" style="stop-color:#7E0E08"/>
		<stop  offset="1" style="stop-color:#7E0E08"/>
	</radialGradient>
	<path class="st14" d="M11,6.3c1.6,1,4.9,3,4.9,3c0.1,0,1.4-2.2,1.7-3.5L11,6.3z"/>
	
		<radialGradient id="SVGID_14_" cx="15" cy="1.4927" r="13.5527" gradientTransform="matrix(0.45 0 0 -0.45 0 13.95)" gradientUnits="userSpaceOnUse">
		<stop  offset="0" style="stop-color:#A30C00"/>
		<stop  offset="0" style="stop-color:#A30C00"/>
		<stop  offset="0.99" style="stop-color:#800E08"/>
		<stop  offset="1" style="stop-color:#800E08"/>
	</radialGradient>
	<path class="st15" d="M5.8,11.1l2.8,5.4c1.7-0.9,2.9-2,4.1-3.1L5.8,11.1z"/>
	
		<linearGradient id="SVGID_15_" gradientUnits="userSpaceOnUse" x1="2.4146" y1="2.0177" x2="0.8949" y2="7.1736" gradientTransform="matrix(1 0 0 -1 0 20)">
		<stop  offset="0" style="stop-color:#8B2114"/>
		<stop  offset="0" style="stop-color:#8B2114"/>
		<stop  offset="0.43" style="stop-color:#9E100A"/>
		<stop  offset="0.99" style="stop-color:#B3100C"/>
		<stop  offset="1" style="stop-color:#B3100C"/>
	</linearGradient>
	<path class="st16" d="M1.2,12.1l-0.4,4.7c0.8,1,1.8,1.1,2.8,1C2.9,15.9,1.4,12.1,1.2,12.1z"/>
	
		<linearGradient id="SVGID_16_" gradientUnits="userSpaceOnUse" x1="14.0832" y1="19.0963" x2="17.4902" y2="17.5923" gradientTransform="matrix(1 0 0 -1 0 20)">
		<stop  offset="0" style="stop-color:#B31000"/>
		<stop  offset="0" style="stop-color:#B31000"/>
		<stop  offset="0.44" style="stop-color:#910F08"/>
		<stop  offset="0.99" style="stop-color:#791C12"/>
		<stop  offset="1" style="stop-color:#791C12"/>
	</linearGradient>
	<path class="st17" d="M12.4,1.6l5.5,0.8c-0.3-1.3-1.2-2.1-2.7-2.3L12.4,1.6z"/>
</g>
</svg>
